<svg width="28" height="28" viewBox="0 0 28 28" fill="none" xmlns="http://www.w3.org/2000/svg">
<g clip-path="url(#clip0_815_1981)">
<path fill-rule="evenodd" clip-rule="evenodd" d="M18.8781 14.3161C17.3409 13.053 15.9668 12.7583 15.9668 12.7583C16.6336 13.4378 17.2502 14.1695 17.8114 14.947C18.7745 16.2529 19.4918 17.9159 19.4918 17.9159L21.3365 17.285C21.3178 17.2629 20.1906 15.3897 18.8781 14.3161Z" fill="#C7CAD1"/>
<path fill-rule="evenodd" clip-rule="evenodd" d="M14.4298 15.5583C13.9821 16.4031 13.4762 17.2123 12.9159 17.9794C12.2212 18.8826 11.4532 19.7209 10.6206 20.4849L11.7444 22.1013C11.7444 22.1013 13.1791 20.4592 13.8138 18.839C14.5521 16.9902 14.4298 15.5583 14.4298 15.5583Z" fill="#C7CAD1"/>
<path fill-rule="evenodd" clip-rule="evenodd" d="M8.83542 14.1059C7.29824 13.6167 5.76106 12.7168 5.76106 12.7168L4.63379 14.337C4.63379 14.337 6.62165 15.1782 8.32303 15.2626C10.2911 15.347 11.5837 14.7735 11.5837 14.7735C10.6525 14.6259 9.73369 14.4027 8.83542 14.1059Z" fill="#C7CAD1"/>
<path fill-rule="evenodd" clip-rule="evenodd" d="M11.4181 5.32643L9.5933 4.73828C9.5933 4.73828 9.4291 6.90623 9.88094 8.56919C10.3933 10.4853 11.3354 11.5588 11.3354 11.5588C11.192 10.6186 11.1099 9.66915 11.0897 8.71715C11.0699 7.09454 11.4181 5.32643 11.4181 5.32643Z" fill="#C7CAD1"/>
<path fill-rule="evenodd" clip-rule="evenodd" d="M16.4187 8.19004C14.7371 9.24162 13.9731 10.4424 13.9731 10.4424C14.8299 10.032 15.7138 9.68713 16.6178 9.41035C17.6973 9.09496 18.802 8.88377 19.9181 8.77941L19.9786 6.84256C19.9658 6.81688 17.8697 7.28398 16.4187 8.19004Z" fill="#C7CAD1"/>
<path fill-rule="evenodd" clip-rule="evenodd" d="M8.63037 8.2095C7.8315 5.81044 8.1797 2.90516 8.1797 2.90516L3.40512 1.95752C3.40512 1.95752 2.7064 7.21539 4.9423 10.084C7.54503 13.4099 12.301 13.9968 12.301 13.9968C12.301 13.9968 10.086 12.5637 8.63037 8.2095Z" fill="#EBE9FE"/>
<path fill-rule="evenodd" clip-rule="evenodd" d="M20.9069 0C20.9069 0 15.783 0.884056 13.7532 3.91284C11.416 7.40871 12.2975 12.2276 12.2975 12.2276C12.2975 12.2276 12.9741 9.65981 16.6226 6.92327C18.6314 5.42784 21.46 4.90205 21.46 4.90205L20.9069 0Z" fill="#EBE9FE"/>
<path fill-rule="evenodd" clip-rule="evenodd" d="M22.2192 10.2735C18.2424 9.0312 14.0198 11.3263 14.0198 11.3263C14.0198 11.3263 16.6225 11.2212 20.2512 13.9577C22.26 15.4531 23.5922 18.0662 23.5922 18.0662L28.0011 16.0633C28.0198 16.0841 25.6418 11.3471 22.2192 10.2735Z" fill="#EBE9FE"/>
<path fill-rule="evenodd" clip-rule="evenodd" d="M15.2717 13.0322C15.2717 13.0322 16.1743 15.5157 14.7395 19.8797C13.9605 22.28 11.9517 24.3648 11.9517 24.3648L15.1285 28.0062C15.1285 28.0062 18.8014 24.2535 18.7572 20.6341C18.6955 16.4009 15.2717 13.0322 15.2717 13.0322Z" fill="#EBE9FE"/>
<path fill-rule="evenodd" clip-rule="evenodd" d="M7.48095 16.1257C5.0005 16.0842 2.41873 14.7575 2.41873 14.7575L0 19.0102C0 19.0102 4.63251 21.4729 8.01431 20.2941C11.9493 18.9259 14.0408 14.5264 14.0408 14.5264C14.0408 14.5264 11.9912 16.1893 7.48095 16.1257Z" fill="#EBE9FE"/>
</g>
<defs>
<clipPath id="clip0_815_1981">
<rect width="28" height="28" fill="white"/>
</clipPath>
</defs>
</svg>
